<svg width="36" height="20" viewBox="0 0 36 20" fill="none" xmlns="http://www.w3.org/2000/svg">
<g clip-path="url(#clip0_7468_9376)">
<path d="M30.9274 16.3271L30.9219 16.323L28.7159 14.9052C28.6553 14.8665 28.5796 14.8583 28.5122 14.8831L24.857 16.24C24.7827 16.2677 24.7001 16.2594 24.6341 16.2166L22.8505 15.3695C22.589 15.2452 22.1707 15.0282 21.9216 14.8817C21.6518 14.7228 21.3862 14.557 21.1303 14.3774L18.4948 12.5258L16.4264 11.0722C16.2957 10.9906 16.1291 10.9948 16.0025 11.0818L11.1349 14.4741C11.0028 14.5598 10.7606 14.4575 10.3491 14.2199C9.66926 13.8302 8.78987 13.4806 8.60822 13.4267C8.31371 13.3383 7.91874 13.3521 7.04623 13.7791C6.66089 13.9684 4.79752 15.0255 2.83644 16.1488C2.51303 16.334 0.418453 17.5527 0.0551366 17.7642C0.0207316 17.7835 0.00146484 17.8194 0.00146484 17.8581V19.9584C0.00146484 19.9805 0.0193554 19.9985 0.0413746 19.9985H36.0015V17.5624C36.0015 17.532 35.9753 17.5085 35.945 17.5113C33.6014 17.7199 31.6802 16.732 30.9288 16.3257L30.9274 16.3271Z" fill="#369992"/>
<path d="M36 12.6593C36 12.184 35.989 12.1743 35.5252 12.1743C34.8385 12.1743 29.2566 12.1743 27.4029 12.1743C27.301 12.1743 27.1992 12.1812 27.1001 12.166C27.0437 12.1577 26.9666 12.1246 26.9474 12.0803C26.9322 12.0458 26.979 11.967 27.0189 11.927C27.2336 11.7128 27.4524 11.5014 27.6726 11.2927C30.2021 8.90361 32.7302 6.51449 35.2651 4.13091C35.4468 3.95957 35.5293 3.78408 35.5266 3.53121C35.5142 2.50731 35.5225 1.48202 35.5211 0.458117C35.5211 0.0214717 35.5197 0.0214717 35.0697 0.0214717C29.719 0.0214717 24.3684 0.0214717 19.0177 0.0214717C18.6159 0.0214717 18.5938 0.0408168 18.5925 0.438772C18.5897 1.67547 18.5911 2.91217 18.5925 4.14887C18.5925 4.61454 18.5938 4.61454 19.0466 4.61454C21.5513 4.61454 24.056 4.61453 26.5606 4.61592C26.6886 4.61592 26.9735 4.61592 27.1015 4.62973C27.107 4.65737 26.3253 5.33721 26.0033 5.63291C24.0009 7.47345 21.9972 9.31261 19.9921 11.1504C17.8369 6.78947 15.1052 1.25403 14.6318 0.284011C14.4776 -0.032418 14.2519 0.00350849 13.5886 0.00212671C11.6647 -0.00201866 10.6215 -0.00201866 9.01411 0.02009C8.41271 0.0283807 8.12233 -0.0268909 7.9737 0.285393C7.63515 0.998396 0.964716 14.486 0.429374 15.5749C0.300011 15.8374 0.132115 16.1787 0 16.4537C0 16.4537 0.0027524 16.4537 0.0041286 16.4537C0.144501 16.4578 0.280745 16.4205 0.40185 16.3473C1.37069 15.7628 6.03463 12.9481 6.52456 12.709C7.25395 12.3512 7.80443 12.1923 8.30674 12.1923C8.52831 12.1923 8.73887 12.2227 8.94942 12.2862C9.19714 12.3608 10.1219 12.7256 10.8857 13.1567C10.9064 13.1678 10.9298 13.1664 10.949 13.154L15.3254 10.1044C15.6873 9.85151 16.1346 9.76308 16.5818 9.86257C16.7539 9.90126 16.9162 9.97449 17.0662 10.0685L17.0814 10.0781L19.392 11.7017L20.7297 12.6413L21.8114 13.4013C22.2683 13.7233 22.7527 14.0052 23.2578 14.2442L24.817 14.9849L28.0827 13.773C28.2451 13.7122 28.4144 13.6818 28.5878 13.6818C28.8672 13.6818 29.1383 13.762 29.3736 13.9126L31.5631 15.3192C33.3646 16.4551 35.5624 16.462 35.9505 16.4537C35.978 16.4537 36.0014 16.4302 36.0014 16.4026C36.0014 16.0364 36.0014 13.7855 36.0014 12.6593H36ZM12.9762 10.0602C11.8436 10.0643 10.711 10.0643 9.57835 10.0602C9.30448 10.0602 9.26457 9.97035 9.38568 9.7161C9.91414 8.60514 10.4398 7.4928 10.9669 6.38046C11.0371 6.23261 11.1692 5.95763 11.2697 5.76004C11.3591 5.90374 12.5881 8.53605 13.1592 9.75893C13.2721 10.0007 13.2335 10.0588 12.9748 10.0602H12.9762Z" fill="#369992"/>
<path d="M30.9272 16.3271L30.9217 16.323L28.7156 14.9052C28.6551 14.8665 28.5794 14.8583 28.5119 14.8831L24.8568 16.24C24.7824 16.2677 24.6999 16.2594 24.6338 16.2166L22.8503 15.3695C22.5888 15.2452 22.1704 15.0282 21.9213 14.8817C21.6516 14.7228 21.386 14.557 21.13 14.3774L18.4946 12.5258L16.4262 11.0722C16.2954 10.9906 16.1289 10.9948 16.0023 11.0818L11.1347 14.4741C11.0026 14.5598 10.7603 14.4575 10.3489 14.2199C9.66902 13.8302 8.78963 13.4806 8.60797 13.4267C8.31347 13.3383 7.9185 13.3521 7.04599 13.7791C6.66065 13.9684 4.79728 15.0255 2.83619 16.1488C2.51278 16.334 0.418209 17.5541 0.0548925 17.7642C0.0204875 17.7835 0.0012207 17.8194 0.0012207 17.8581V19.9584C0.0012207 19.9805 0.0191113 19.9985 0.0411305 19.9985H36.0012V17.5624C36.0012 17.532 35.9751 17.5085 35.9448 17.5113C33.6011 17.7199 31.68 16.732 30.9286 16.3257L30.9272 16.3271Z" fill="#CC6C20"/>
</g>
<defs>
<clipPath id="clip0_7468_9376">
<rect width="36" height="20" fill="white"/>
</clipPath>
</defs>
</svg>
